<mxfile host="" modified="2020-06-30T16:29:35.750Z" agent="5.0 (Windows NT 10.0; WOW64) AppleWebKit/537.36 (KHTML, like Gecko) Code/1.46.1 Chrome/78.0.3904.130 Electron/7.3.1 Safari/537.36" etag="eKXfEiInlLjF5JJPRp-R" version="13.1.3">
    <diagram id="6hGFLwfOUW9BJ-s0fimq" name="Page-1">
        <mxGraphModel dx="1376" dy="824" grid="1" gridSize="10" guides="1" tooltips="1" connect="1" arrows="1" fold="1" page="1" pageScale="1" pageWidth="827" pageHeight="1169" math="0" shadow="0">
            <root>
                <mxCell id="0"/>
                <mxCell id="1" parent="0"/>
                <mxCell id="16" style="edgeStyle=orthogonalEdgeStyle;rounded=0;orthogonalLoop=1;jettySize=auto;html=1;fontColor=#000000;" parent="1" source="10" target="13" edge="1">
                    <mxGeometry relative="1" as="geometry"/>
                </mxCell>
                <mxCell id="10" value="Image Processor" style="rounded=0;whiteSpace=wrap;html=1;strokeColor=#080808;fontColor=#333333;fillColor=#f5f5f5;" parent="1" vertex="1">
                    <mxGeometry x="200" y="120" width="120" height="40" as="geometry"/>
                </mxCell>
                <mxCell id="12" value="View" style="rounded=0;whiteSpace=wrap;html=1;strokeColor=#080808;fontColor=#333333;fillColor=#f5f5f5;" parent="1" vertex="1">
                    <mxGeometry x="520" y="120" width="120" height="40" as="geometry"/>
                </mxCell>
                <mxCell id="17" style="edgeStyle=orthogonalEdgeStyle;rounded=0;orthogonalLoop=1;jettySize=auto;html=1;fontColor=#000000;" parent="1" source="13" target="12" edge="1">
                    <mxGeometry relative="1" as="geometry"/>
                </mxCell>
                <mxCell id="13" value="Renderer" style="rounded=0;whiteSpace=wrap;html=1;strokeColor=#080808;fontColor=#333333;fillColor=#f5f5f5;" parent="1" vertex="1">
                    <mxGeometry x="360" y="120" width="120" height="40" as="geometry"/>
                </mxCell>
                <mxCell id="15" style="edgeStyle=orthogonalEdgeStyle;rounded=0;orthogonalLoop=1;jettySize=auto;html=1;fontColor=#000000;" parent="1" source="14" target="10" edge="1">
                    <mxGeometry relative="1" as="geometry"/>
                </mxCell>
                <mxCell id="14" value="Input" style="rounded=0;whiteSpace=wrap;html=1;strokeColor=#080808;fontColor=#333333;fillColor=#f5f5f5;" parent="1" vertex="1">
                    <mxGeometry x="40" y="120" width="120" height="40" as="geometry"/>
                </mxCell>
                <mxCell id="24" style="edgeStyle=orthogonalEdgeStyle;rounded=0;orthogonalLoop=1;jettySize=auto;html=1;fontColor=#000000;" parent="1" source="25" target="30" edge="1">
                    <mxGeometry relative="1" as="geometry">
                        <Array as="points">
                            <mxPoint x="340" y="300"/>
                            <mxPoint x="340" y="300"/>
                        </Array>
                    </mxGeometry>
                </mxCell>
                <mxCell id="25" value="Image Processor" style="rounded=0;whiteSpace=wrap;html=1;strokeColor=#6c8ebf;fillColor=#dae8fc;gradientColor=#7ea6e0;" parent="1" vertex="1">
                    <mxGeometry x="240" y="320" width="120" height="40" as="geometry"/>
                </mxCell>
                <mxCell id="28" value="View" style="rounded=0;whiteSpace=wrap;html=1;strokeColor=#82b366;fillColor=#d5e8d4;gradientColor=#97d077;" parent="1" vertex="1">
                    <mxGeometry x="480" y="240" width="120" height="40" as="geometry"/>
                </mxCell>
                <mxCell id="29" style="edgeStyle=orthogonalEdgeStyle;rounded=0;orthogonalLoop=1;jettySize=auto;html=1;fontColor=#000000;" parent="1" source="30" target="28" edge="1">
                    <mxGeometry relative="1" as="geometry"/>
                </mxCell>
                <mxCell id="30" value="Renderer" style="rounded=0;whiteSpace=wrap;html=1;strokeColor=#d79b00;fillColor=#ffe6cc;" parent="1" vertex="1">
                    <mxGeometry x="320" y="240" width="120" height="40" as="geometry"/>
                </mxCell>
                <mxCell id="36" style="edgeStyle=orthogonalEdgeStyle;rounded=0;jumpStyle=arc;orthogonalLoop=1;jettySize=auto;html=1;exitX=0.75;exitY=1;exitDx=0;exitDy=0;entryX=0.133;entryY=0;entryDx=0;entryDy=0;entryPerimeter=0;" parent="1" source="32" target="25" edge="1">
                    <mxGeometry relative="1" as="geometry">
                        <Array as="points">
                            <mxPoint x="256" y="280"/>
                        </Array>
                    </mxGeometry>
                </mxCell>
                <mxCell id="32" value="Input" style="rounded=0;whiteSpace=wrap;html=1;strokeColor=#82b366;fillColor=#d5e8d4;gradientColor=#97d077;" parent="1" vertex="1">
                    <mxGeometry x="160" y="240" width="120" height="40" as="geometry"/>
                </mxCell>
                <mxCell id="44" style="edgeStyle=orthogonalEdgeStyle;rounded=0;jumpStyle=arc;orthogonalLoop=1;jettySize=auto;html=1;" parent="1" source="38" target="41" edge="1">
                    <mxGeometry relative="1" as="geometry"/>
                </mxCell>
                <mxCell id="38" value="Image Processor" style="rounded=0;whiteSpace=wrap;html=1;strokeColor=#6c8ebf;fillColor=#dae8fc;gradientColor=#7ea6e0;" parent="1" vertex="1">
                    <mxGeometry x="200" y="560" width="120" height="40" as="geometry"/>
                </mxCell>
                <mxCell id="39" value="View" style="rounded=0;whiteSpace=wrap;html=1;strokeColor=#82b366;fillColor=#d5e8d4;gradientColor=#97d077;" parent="1" vertex="1">
                    <mxGeometry x="360" y="480" width="120" height="40" as="geometry"/>
                </mxCell>
                <mxCell id="40" style="edgeStyle=orthogonalEdgeStyle;rounded=0;orthogonalLoop=1;jettySize=auto;html=1;fontColor=#000000;" parent="1" source="41" target="39" edge="1">
                    <mxGeometry relative="1" as="geometry"/>
                </mxCell>
                <mxCell id="41" value="Renderer" style="rounded=0;whiteSpace=wrap;html=1;strokeColor=#080808;fontColor=#333333;fillColor=#f5f5f5;" parent="1" vertex="1">
                    <mxGeometry x="360" y="560" width="120" height="40" as="geometry"/>
                </mxCell>
                <mxCell id="45" style="edgeStyle=orthogonalEdgeStyle;rounded=0;jumpStyle=arc;orthogonalLoop=1;jettySize=auto;html=1;exitX=0.5;exitY=1;exitDx=0;exitDy=0;" parent="1" source="43" target="38" edge="1">
                    <mxGeometry relative="1" as="geometry"/>
                </mxCell>
                <mxCell id="43" value="Input" style="rounded=0;whiteSpace=wrap;html=1;strokeColor=#82b366;fillColor=#d5e8d4;gradientColor=#97d077;" parent="1" vertex="1">
                    <mxGeometry x="200" y="480" width="120" height="40" as="geometry"/>
                </mxCell>
                <mxCell id="47" value="Results of image processing&lt;br&gt;(e.g. estimated class ID, object position(x,y) )" style="shape=callout;whiteSpace=wrap;html=1;perimeter=calloutPerimeter;direction=south;position2=0;size=20;position=0.21;base=6;" parent="1" vertex="1">
                    <mxGeometry x="360" y="305" width="180" height="45" as="geometry"/>
                </mxCell>
                <mxCell id="48" value="Input image&lt;br&gt;as Byte Array" style="shape=callout;whiteSpace=wrap;html=1;perimeter=calloutPerimeter;direction=north;position2=1;base=15;" parent="1" vertex="1">
                    <mxGeometry x="90" y="300" width="160" height="50" as="geometry"/>
                </mxCell>
                <mxCell id="52" value="Draw bounding box, etc." style="shape=callout;whiteSpace=wrap;html=1;perimeter=calloutPerimeter;direction=east;position2=0.19;size=20;position=0.21;base=30;" parent="1" vertex="1">
                    <mxGeometry x="422.5" y="60" width="135" height="50" as="geometry"/>
                </mxCell>
                <mxCell id="53" value="Display the result image&amp;nbsp;" style="shape=callout;whiteSpace=wrap;html=1;perimeter=calloutPerimeter;direction=east;position2=0.19;size=20;position=0.21;base=30;" parent="1" vertex="1">
                    <mxGeometry x="590" y="60" width="135" height="50" as="geometry"/>
                </mxCell>
                <mxCell id="54" value="Do some image processing like object detection" style="shape=callout;whiteSpace=wrap;html=1;perimeter=calloutPerimeter;direction=east;position2=0.19;size=20;position=0.21;base=30;" parent="1" vertex="1">
                    <mxGeometry x="237.5" y="60" width="155" height="50" as="geometry"/>
                </mxCell>
                <mxCell id="55" value="Input image from camera" style="shape=callout;whiteSpace=wrap;html=1;perimeter=calloutPerimeter;direction=east;position2=0.19;size=20;position=0.21;base=30;" parent="1" vertex="1">
                    <mxGeometry x="60" y="60" width="155" height="50" as="geometry"/>
                </mxCell>
                <mxCell id="56" value="Input image&lt;br&gt;as Byte Array" style="shape=callout;whiteSpace=wrap;html=1;perimeter=calloutPerimeter;direction=north;position2=1;base=15;" parent="1" vertex="1">
                    <mxGeometry x="55" y="535" width="160" height="50" as="geometry"/>
                </mxCell>
                <mxCell id="57" value="The result image as Byte Array" style="shape=callout;whiteSpace=wrap;html=1;perimeter=calloutPerimeter;direction=south;position2=0.1;base=15;" parent="1" vertex="1">
                    <mxGeometry x="480" y="535" width="160" height="50" as="geometry"/>
                </mxCell>
                <mxCell id="61" value="Common" style="rounded=0;whiteSpace=wrap;html=1;gradientColor=#7ea6e0;fillColor=#dae8fc;strokeColor=#6c8ebf;" parent="1" vertex="1">
                    <mxGeometry x="560" y="345" width="60" height="30" as="geometry"/>
                </mxCell>
                <mxCell id="62" value="Platform dependent" style="rounded=0;whiteSpace=wrap;html=1;gradientColor=#97d077;fillColor=#d5e8d4;strokeColor=#82b366;" parent="1" vertex="1">
                    <mxGeometry x="560" y="305" width="60" height="30" as="geometry"/>
                </mxCell>
                <mxCell id="64" value="Renderer" style="rounded=0;whiteSpace=wrap;html=1;strokeColor=#d79b00;fillColor=#ffe6cc;" parent="1" vertex="1">
                    <mxGeometry x="360" y="560" width="120" height="40" as="geometry"/>
                </mxCell>
                <mxCell id="65" value="Specification dependent" style="rounded=0;whiteSpace=wrap;html=1;fillColor=#ffe6cc;strokeColor=#d79b00;" vertex="1" parent="1">
                    <mxGeometry x="627.5" y="305" width="72.5" height="30" as="geometry"/>
                </mxCell>
            </root>
        </mxGraphModel>
    </diagram>
</mxfile>